PathFileType	4	(X/Y/Z)	Patient4_TMGait_0pt5_01_right_40.trc.trc
DataRate	CameraRate	NumFrames	NumMarkers	Units	OrigDataRate	OrigDataStartFrame	OrigNumFrames
74.866310160428	74.866310160428	4	33	mm	74.866310160428	1	       141
Frame#	Time	L.ASIS			Sacral			L.Shoulder			Chest			R.Shoulder			Neck			R.ASIS			R.Thigh.Superior			R.Thigh.Lateral			R.Thigh.Inferior			R.Patella			L.Thigh.Superior			L.Thigh.Lateral			L.Thigh.Inferior			L.Patella			L.Shank.Superior			L.Shank.Lateral			L.Shank.Inferior			R.Shank.Superior			R.Shank.Lateral			R.Shank.Inferior			R.Heel			R.Midfoot.Superior			R.Midfoot.Lateral			R.Toe			L.Heel			L.Midfoot.Lateral			L.Midfoot.Superior			L.Toe			L.Elbow			L.Wrist			R.Elbow			R.Wrist			
		X1	Y1	Z1	X2	Y2	Z2	X3	Y3	Z3	X4	Y4	Z4	X5	Y5	Z5	X6	Y6	Z6	X7	Y7	Z7	X8	Y8	Z8	X9	Y9	Z9	X10	Y10	Z10	X11	Y11	Z11	X12	Y12	Z12	X13	Y13	Z13	X14	Y14	Z14	X15	Y15	Z15	X16	Y16	Z16	X17	Y17	Z17	X18	Y18	Z18	X19	Y19	Z19	X20	Y20	Z20	X21	Y21	Z21	X22	Y22	Z22	X23	Y23	Z23	X24	Y24	Z24	X25	Y25	Z25	X26	Y26	Z26	X27	Y27	Z27	X28	Y28	Z28	X29	Y29	Z29	X30	Y30	Z30	X31	Y31	Z31	X32	Y32	Z32	X33	Y33	Z33	

1	52.650000000000	788.991983619052	965.874769251315	296.757883330643	568.781315665767	1007.703070824494	449.203321975538	741.827902562110	1438.563699297535	271.403794040762	842.506585613588	1372.219788860731	435.707521381186	751.704521339647	1441.655610953626	608.819014373072	736.170489918922	1500.326740197211	422.682071233967	793.863281100601	948.766636954184	571.190918896354	871.846266605299	771.891115932633	547.418110317863	824.197796753774	653.242933956204	619.823859380315	914.803292143364	608.409490077850	544.518096288075	927.685619867975	493.876171224892	568.105679525241	834.376527258897	752.429381165348	325.699063531489	743.045420408638	636.580619056062	272.025106470654	827.210260370573	559.307095142675	335.124379753174	827.003051921375	489.421334720512	347.745562354410	800.461779628713	417.186934038172	341.959668195841	711.503051855388	301.799012965982	294.292847682850	760.343248112672	192.928673484384	369.043884327178	846.800366482285	422.939124537826	574.721005164299	723.568663323891	391.299547584122	635.836690908682	701.568606525514	283.773389221618	586.896502179321	496.767089582476	239.890124965006	562.681979165060	659.984710962862	163.484806155810	596.273117700450	550.215446611123	168.668799827058	630.001419761315	714.959120543937	44.212334761065	612.858407180626	630.457806427115	38.036637496586	415.559653744766	703.957216333756	34.959896709849	334.115937631038	787.904852226330	95.503719822376	359.757761501698	916.029200620566	42.112572657343	331.434671238869	778.332133036695	1090.614571131613	133.820800250873	954.262415481350	896.493248330561	125.769412297528	686.093826327651	1097.444199453761	716.879613520657	725.569306584194	837.826476018442	717.266194633608	
2	52.663357142857	788.256828722418	966.435523401730	296.563304696809	567.658607931774	1008.874727778165	447.806451426038	743.369843944755	1439.359387921596	270.070375507647	842.130574377241	1373.018254856107	435.396151245129	749.885413261817	1443.129648232350	607.491066841169	736.042742233781	1501.254649575951	421.177756166439	791.934293782438	950.184088924145	570.960331403373	872.037621328702	775.848064059431	546.882128672797	826.741883961006	656.493219740358	619.730792981919	917.940133634327	613.158587771761	544.469347757746	933.047788912426	499.215184356330	568.220754626738	830.807870711412	751.750864665941	325.691905489956	737.769560772639	637.221264497791	271.608302725512	820.488380581015	558.862208336505	334.839625356237	819.300887959440	489.360886976920	347.402621855830	793.010765157570	417.555378948936	341.419136885254	703.935289187638	302.169739179704	293.922093515478	753.079508603455	193.295589497610	368.666225882785	854.435657651462	426.378642040198	574.270028829198	732.214658179851	390.528571139105	634.608468769948	714.133608372344	282.469164384997	585.344536122724	511.231247731104	231.183616648541	559.943611199540	676.811010653292	161.300202438768	594.417926494573	566.948393756922	162.231245491997	627.560326147202	736.180854480835	44.410344821512	611.409849096320	623.253910241038	38.186233160503	415.444350903032	696.860180258711	34.957555037454	334.026869038110	780.876987515215	95.553881007012	359.513748421679	908.921235658118	42.045180368880	331.385935149535	784.899075135991	1093.098934338460	131.325329190841	967.289875408061	905.719196365299	123.264304615601	674.042696095207	1102.118896532332	715.742592772578	703.870185414533	841.983718493480	717.924154075650	
3	52.676714285714	787.507901862634	966.963267740378	296.405238153938	566.539224936896	1010.019642820282	446.442633657646	744.894722766629	1440.113523670379	268.765527166140	841.756322721514	1373.783911249310	435.098507755487	748.102735327198	1444.584743719483	606.186266498567	735.908633604423	1502.146517847074	419.689873169940	790.009329983069	951.556958149064	570.756752521981	872.143826779042	779.681817963751	546.403077802120	829.133874100858	659.632046568599	619.668427763518	920.886777103132	617.749927916627	544.438397868766	938.162161557050	504.438672908911	568.368827191677	827.239638948810	751.061685249207	325.724026447948	732.515368779577	637.848388150690	271.192883567600	813.789713116906	558.415002007955	334.561737060333	811.617096255568	489.295258234999	347.070782456453	785.587815041187	417.914706794722	340.889446974250	696.401711257110	302.529511370720	293.552639734645	745.850792475199	193.655157870838	368.296314019060	861.896334313988	429.693000644402	573.863956969207	740.774676251615	389.507793000977	633.441169879029	726.749124347571	280.931143887067	583.880435571035	525.884212769731	222.039684736020	557.316762853261	693.829940930980	158.874039048180	592.661493305402	583.929478950903	155.451744589237	625.252094209868	757.691755054215	44.480070178083	610.080866781484	616.096917666875	38.331011400121	415.330634983435	689.801081803291	34.953279976562	333.939926768913	773.885140322521	95.604191779416	359.272869186638	901.852050211850	41.984289048019	331.339704456057	791.342473496024	1095.524069976148	128.901405040087	980.093138382601	914.876300024451	120.846159439322	662.157622287661	1106.818893241585	714.627404411474	682.522925565339	846.236862967276	718.595459776757	
4	52.690071428571	786.737071475164	967.418628445256	296.317368309845	565.430113674752	1011.099552359480	445.150072168154	746.376134763477	1440.775077138418	267.529689136083	841.387923234863	1374.471765141374	434.834728421142	746.399959614884	1445.982122129990	604.940109455815	735.766931215089	1502.956723024774	418.250695304265	788.100597121687	952.826840790916	570.610745309631	872.064267739382	783.224597840511	546.032341113792	831.178211172851	662.516388699819	619.663756295687	923.406078994294	621.981279384660	544.436547141967	942.736465704092	509.398327741755	568.556426585135	823.692655418804	750.350152798597	325.826835385240	727.326648974915	638.441864569691	270.787146429327	807.162484326416	557.960121298637	334.302080703993	804.014301507488	489.220054051102	346.753930044375	778.242498069965	418.250044161786	340.385781988589	688.955053368517	302.864640068552	293.188468892505	738.702093714652	193.995693891378	367.945041762328	868.966934908363	432.753452704978	573.536237905076	749.160493522942	388.028353953467	632.407767543885	739.430885664098	279.001343307258	582.593326493082	540.938098345276	212.153964991869	554.935756329077	711.182583523872	156.084697687330	591.112905080026	601.389971095320	148.130015336273	623.220050156959	779.684352512446	44.440487037237	608.995763663557	609.035011383312	38.464697919188	415.221294292781	682.821605503714	34.945698104465	333.857340873359	766.968571248551	95.653512383383	359.041237398279	894.864705986155	41.936113614512	331.298026967196	797.523661741939	1097.814856226236	126.631467335113	992.407704586451	923.845458271887	118.613470012957	650.662903667710	1111.513638898172	713.562227489959	661.959455438796	850.615304802420	719.292532760629	
